<svg xmlns="http://www.w3.org/2000/svg" xml:space="preserve" style="enable-background:new 0 0 165.56 31.38" viewBox="0 0 165.56 31.38"><path d="M0 2.52h23.3v5.16H0zM5.69 13.05H0v17.73h5.69V18.23h12.25v-5.17H5.69zM35.12 9.4v10.86c0 1.98-.46 3.53-1.38 4.64-.92 1.1-2.22 1.66-3.88 1.66-1.47 0-2.6-.41-3.39-1.21-.79-.81-1.18-2.01-1.18-3.62v-8.67h-5.44v9.1c0 1.75.35 3.3 1.04 4.65.69 1.36 1.66 2.41 2.91 3.17 1.25.77 2.71 1.15 4.38 1.15 1.92 0 3.36-.35 4.31-1.04.95-.69 1.59-1.39 1.94-2.11h.77v2.8h5.35V9.4h-5.43zM123.13 9.4v10.86c0 1.98-.46 3.53-1.38 4.64-.92 1.1-2.22 1.66-3.88 1.66-1.47 0-2.6-.41-3.39-1.21-.79-.81-1.18-2.01-1.18-3.62v-8.67h-5.44v9.1c0 1.75.35 3.3 1.04 4.65.69 1.36 1.66 2.41 2.91 3.17 1.25.77 2.71 1.15 4.38 1.15 1.92 0 3.36-.35 4.31-1.04.95-.69 1.59-1.39 1.94-2.11h.77v2.8h5.35V9.4h-5.43zM54.06 9.31c-.97 0-1.83.2-2.56.6-.74.41-1.26 1.04-1.57 1.9h-.78V9.4H43.8v21.38h5.44V18.62c0-1.52.44-2.65 1.33-3.38.89-.74 2.03-1.1 3.41-1.1h2.67V9.31h-2.59zM78.43 13.34c-.69-1.34-1.66-2.39-2.91-3.15-1.25-.76-2.71-1.14-4.37-1.14-1.93 0-3.37.34-4.31 1.01-.95.68-1.6 1.39-1.95 2.14h-.77V9.4h-5.35v21.38h5.44V19.92c0-1.99.45-3.53 1.38-4.64.91-1.11 2.21-1.66 3.88-1.66 1.46 0 2.59.4 3.38 1.21.79.8 1.19 2.01 1.19 3.62v12.33h5.43V18.02c0-1.78-.35-3.34-1.04-4.68zM82.05 9.4v21.38h5.43V9.4h-5.43zM87.27.94c-.66-.63-1.5-.94-2.5-.94-.98 0-1.81.31-2.48.94-.68.64-1.01 1.47-1.01 2.5 0 1.04.33 1.87 1.01 2.51.67.63 1.5.94 2.48.94 1 0 1.84-.31 2.5-.94.66-.64.99-1.47.99-2.51 0-1.03-.33-1.86-.99-2.5zM105.8 13.88V9.4h-5.87V2.75H94.5V9.4h-5.35v4.48h5.35v12.07c0 1.47.44 2.64 1.32 3.52.87.87 2.01 1.31 3.42 1.31h6.04V26.3h-4.14c-.8 0-1.21-.43-1.21-1.3V13.88h5.87zM142.08 9.31c-.98 0-1.84.2-2.57.6-.73.41-1.26 1.04-1.57 1.9h-.78V9.4h-5.35v21.38h5.44V18.62c0-1.52.44-2.65 1.33-3.38.89-.74 2.03-1.1 3.41-1.1h2.67V9.31h-2.58zM165.56 19.83c0-2.18-.43-4.1-1.29-5.76-.86-1.65-2.07-2.94-3.62-3.88-1.56-.93-3.38-1.4-5.48-1.4-2.13 0-4 .45-5.61 1.36-1.61.9-2.86 2.18-3.75 3.84-.89 1.65-1.33 3.6-1.33 5.84v.52c0 2.24.45 4.19 1.36 5.84.9 1.65 2.17 2.93 3.79 3.84 1.62.9 3.5 1.35 5.63 1.35 1.95 0 3.56-.3 4.83-.92 1.26-.62 2.27-1.37 3.04-2.24.76-.88 1.34-1.69 1.74-2.44l-4.44-2.33c-.37.81-.92 1.54-1.64 2.2-.72.66-1.84.99-3.36.99-1.5 0-2.76-.46-3.8-1.38-1.03-.92-1.58-2.11-1.63-3.58h15.56v-1.85zm-15.52-2.2c.2-1.24.73-2.23 1.59-2.97.87-.75 2.03-1.13 3.5-1.13 1.41 0 2.55.38 3.42 1.13.88.74 1.38 1.73 1.49 2.97h-10z"/></svg>